<svg width="22" height="22" viewBox="0 0 22 22" fill="none" xmlns="http://www.w3.org/2000/svg">
<g id="favorite_FILL0_wght400_GRAD0_opsz48 1">
<path id="Vector" d="M11 19.2271L10.0605 18.3792C8.44456 16.8954 7.10864 15.6154 6.0527 14.5393C4.99676 13.4631 4.1556 12.5011 3.52921 11.6532C2.90282 10.8052 2.46358 10.0375 2.2115 9.35003C1.95942 8.66253 1.83337 7.96739 1.83337 7.26462C1.83337 5.88725 2.29553 4.73701 3.21983 3.81389C4.14414 2.89076 5.28615 2.4292 6.64587 2.4292C7.51671 2.4292 8.32261 2.63545 9.06358 3.04795C9.80455 3.46045 10.45 4.05628 11 4.83545C11.6417 4.01045 12.3216 3.40316 13.0396 3.01357C13.7577 2.62399 14.5292 2.4292 15.3542 2.4292C16.7139 2.4292 17.8559 2.89076 18.7802 3.81389C19.7046 4.73701 20.1667 5.88725 20.1667 7.26462C20.1667 7.96739 20.0407 8.66253 19.7886 9.35003C19.5365 10.0375 19.0973 10.8052 18.4709 11.6532C17.8445 12.5011 17.0033 13.4631 15.9474 14.5393C14.8914 15.6154 13.5555 16.8954 11.9396 18.3792L11 19.2271ZM11 17.4167C12.5467 15.9959 13.8195 14.7776 14.8184 13.7615C15.8173 12.7455 16.6108 11.8556 17.199 11.0917C17.7872 10.3278 18.1997 9.64692 18.4365 9.04902C18.6733 8.45111 18.7917 7.85742 18.7917 7.26794C18.7917 6.25739 18.4709 5.42746 17.8292 4.77816C17.1875 4.12885 16.3643 3.8042 15.3594 3.8042C14.5722 3.8042 13.8436 4.04482 13.1737 4.52607C12.5038 5.00732 11.9625 5.68337 11.55 6.5542H10.4271C10.0299 5.69864 9.49633 5.02642 8.8264 4.53753C8.15645 4.04864 7.42789 3.8042 6.64072 3.8042C5.63582 3.8042 4.81254 4.12885 4.17087 4.77816C3.52921 5.42746 3.20837 6.2587 3.20837 7.27186C3.20837 7.86286 3.32678 8.4601 3.56358 9.06357C3.80039 9.66705 4.21289 10.3545 4.80108 11.1261C5.38928 11.8976 6.18754 12.7875 7.19587 13.7959C8.20421 14.8042 9.47226 16.0111 11 17.4167Z" fill="#55A3FF"/>
</g>
</svg>
